<svg xmlns="http://www.w3.org/2000/svg" version="1.1" xlink="http://www.w3.org/1999/xlink"
  xmlns:svgjs="http://svgjs.com/svgjs" width="100%" height="100%" preserveAspectRatio="xMidYMid meet"
  viewBox="0.00008671839896123856 -0.000011716424523910973 150.4579620361328 146.99993896484375" overflow="visible">
  <defs id="SvgjsDefs237549"></defs>
  <g id="SvgjsG237550" transform="scale(0.515970515970516)" opacity="1">
    <g id="SvgjsG237551" class="4Wx40u8Kb"
      transform="translate(0.06363423325539862, -0.0944823264823971) scale(0.9448232648259045)" light-content="false"
      non-strokable="false" fill="#1c1406">
      <path
        d="M216.6 20.3c1.3.8 3.2 1.6 5.3 2.4-.2-.9-.9-1.7-2.1-2.5-1.3-.7-3.1-1.4-5.6-2.1.2.7 1.1 1.4 2.4 2.2zM68.5 266c-3.6-2.6-7-5.4-10.3-8.3-1.4-1.2-2.7-2.3-4.1-3.5-.3-.4-.6-.9-.8-1.3.3-.8-.4-1.7-1.5-2.7-1.1-1-2.7-2-4.3-3-2.7-2.8-3.7-3.3-5.1-2.5 1.2 1.4 2.4 2.8 3.5 4 1 1.5 1.9 2.8 3 4.2-2.3-2.6-4.3-5.4-6.5-8.2-1.5-1.7-2.9-2-3.5-1.4l2.1 3.3c.8 1.1 1.6 2.1 2.3 3.2.2 1.6-1 1.2-1.3 1.4.6.7 1.1 1.3 1.7 2 .6.7 1.2 1.3 1.9 2 1.3 1.3 2.6 2.7 4 4 1.4 1.3 2.8 2.6 4.3 4 1.5 1.3 3 2.6 4.6 3.9.6.5 1.2 1 1.9 1.4.7.4 1.3.9 2 1.3 1.3-.4 2.6-.9 3.9-1.4-.3-.2-.4-.3-.7-.6 1.2-.7 2-1.2 2.9-1.8zm-17.4-9.4c-.9-1.1-1.8-2.3-2.7-3.4 1.2 1.3 2.3 2.9 3.7 4.2.4.4.8.8 1.2 1.1-.8-.4-1.6-1-2.2-1.9zM68.4 270c.3.9 1.2 1.8 2.6 2.9.7.5 1.6 1 2.6 1.6 1 .6 2.3 1.1 3.7 1.7.5-.3-.9-1.5-1.3-2.3-1.8-1.2-3.7-2.7-7.6-3.9zm-11.8-54.2c.6 1.3 1.3 2.6 1.8 3.8.3.5.6.9.8 1.2.8 1.1 1.7 2.3 2.6 3.5 6 2.9-2.6-5.1-2.9-7.8-.5.4-1.9-1.6-2.3-.7zM206.9 14c-2-1.5-3.9-2.8-5.7-3.5-1.8-.7-3.4-1-4.5-.6.5 1.6 4.3 2.7 10.2 4.1z">
      </path>
      <path
        d="M308.3 158.7c-.1-.9-.3-1.9-.4-3.2-.1-1.3-.1-2.8-.1-4.7-.1-.1-.2-.1-.3-.2-.5-.2-1-.5-1.5-.7-.2-1.8-.4-3.3-.6-4.9-1.1.3-2.2.8-3.3 1.2-.7-.1-1.5-.1-2.3 0-.6-.3-.9-.4-1.5 2.9-.6.8-1.2 1.8-1.8 2.7-.7 0-1.5-.1-2.3-.1-1.2-1.1-2.6-2.2-3.9-3.4-.4-1.4-.8-1.7-1-2.8-.7-.3-1.5-.6-2.2-.8-.9-.2-1.9-.2-2.9-.2-.5 0-1.5-1.2-1.6.2-.8.7-1.7 1.3-2.5 2.2-.2-.5-.5-.8-.7-1 .1 12.2-1.5 24.5-5.1 36.2.2 1.3-2.1 4.1-.6 4-1 6.6-3.7 12.2-6.3 18.1 1.7.7.9 2.4-.5 4.2-1.3 1.8-3 3.8-2.8 5.5-1.6.5-2.4 2.2-3.4 4-1 1.8-2 3.9-3.9 4.8-4.2 6.7-10.4 13.5-16.2 18.3-1.6 1.7-3.2 3.3-5 4.7-.9.7-1.8 1.4-2.8 2.1-.9.7-1.9 1.4-2.9 2-2 1.3-4 2.6-6.2 3.7l-3.3 1.8c-1.1.6-2.3 1.2-3.5 1.8.1.8-1.6 1.3-1.8 2.3-1.8.9-3.7 1.7-5.6 2.6-1.9.8-3.9 1.6-5.8 2.4-1.6.6-3.3 1.2-5.1 1.9-1.8.6-3.8 1.1-5.7 1.7-3.9 1-7.9 1.9-11.4 2.4-.6.8-3.3.3-3.2 2.1-1-.3-2.1-.5-3.4-.4-.6 0-1.3.2-2 .4s-1.4.4-2.2.8c-1.6-.5-5.3.6-5.2-.7-1 .1-3.1-.2-3.1.4-.6.3-1.3.4-2.2.4-.8 0-1.7-.1-2.5-.1-1.4.3-2.6.5-4.1.8 1-1.3-3.3-1.3-3.6-.9-.6.3-1.6.2-2.7.2s-2.2 0-3.1.7c-.3 0-.5-.1-.8-.1-1-.7-2-1.2-2.9-1.4-.9-.2-1.7-.2-2.3.4-.8-.2-1.4-.6-2.3-.8-.9-.2-2.1-.1-4.1.5-.8-.1-1.7-.2-2.4-.2 1.3-.8-1.2-1-.7-1.8-1.3.1-2.9-.2-4.5-.6-1.6-.4-3.3-.9-5-1.5-1.7-.6-3.3-1.2-4.9-1.7-1.6-.6-3-1-4.4-1.1-1.9-.8-3.6-1.6-5.5-2.5-1.3-.5-2.8-1.4-4.3-2.1-1.5-.7-3-1.3-4.5-1.5-.4-.2-.8-.5-1.4-.8-3.8-2.3-8.2-6.2-14.2-8.9-1.8-1.5-3.5-3.1-5.1-4.7-.8-.8-1.6-1.6-2.4-2.3-.8-.7-1.6-1.5-2.4-2.2-1.1-1.2-1.5-2.1-1.7-3 0-.1 0-.2-.1-.3-8.4-6.5-15-14.4-20.8-23.2-.9-.4-1.8-.6-2.6-.9-.9-.7-1.9-1.6-2.7-2.4-.2-.4-.4-.9-.7-1.4-3.7-7.7-7.2-17.2-9.6-25.4-.2-.1-.5-.4-.8-.6-.3-.8-.5-1.7-.7-2.8-.2-1.1-.5-2.6-.7-4.6.3-.1.6-.1 1-.2-3.9-15.5-5-31-2.9-46.9l.5.5c.4-4.2 1.1-8.3 1.9-12.3v-.1c.1-.2.1-.5.2-.7 5.5-25 19.1-47.9 37.9-65.4-1 1-1.5 2-2.5 3 16.5-17 37-28 60.5-33.5 6-1 12-2.5 18-2 8.5 0 17.5 0 26 .5l-.5.5c11.5 1 22.5 5 33.5 9-1.5-.5-3.5-1-5-1.5 15.5 6 30 14 42 26 2.7 3.1 5.4 5.9 8.1 8.8h.4c1.4-.5 1.6-2.2 1.8-3.3-1-1.5-2.2-2.8-3.4-4.3-.7-1.1-1.3-2.1-2.2-3.2-2-1.9-4.2-3.9-6.3-5.6-.7-.9-1.5-1.7-2.3-2.6-.8-.8-1.7-1.6-2.5-2.4-1.7-1.7-3.6-3.1-5.5-4.6l-1.4-1.1-1.5-1c-1-.7-1.9-1.4-2.9-2.1-1.9-1.4-3.9-2.6-5.6-4-.8-.9-2.7-1.8-4.5-2.8-.5-.2-.9-.5-1.4-.7-.4-.2-.9-.4-1.3-.6-.8-.4-1.4-.8-1.8-1.2-.8-.4-1.7-.8-2.5-1.2-.8-.4-1.7-.7-2.5-1-.9-.4-2-.8-2.9-1.2.6-1.7-3.6-2.7-5.1-2.5l-1.9-.7-1.9-.6-3.8-1.1c-1.3-.4-2.6-.6-3.9-1-1.3-.3-2.6-.7-3.9-.9-1.3-.3-2.6-.7-3.9-1-.2-.7-1.4-1.3-2.9-1.5-1.5-.2-3.2-.2-4.2.1-.8-.1-1.7-.2-2.5-.3-1.9-.6-4.1-1.2-6.2-1.8 1.2-1-1.5-1.2-.6-1.9.8-.6 1.4-1.2 2-1.8 1.2-.1 2.5-.1 4.1-.2 1.6-.2 3.6-.3 6.2-.6l3 .6c1 .2 1.9.5 2.9.7 1 .2 1.9.5 2.9.7.5.1 1 .2 1.4.4.5.1 1 .3 1.4.4.1.7 1.2 1.4 2.9 1.8 1.7.4 4 .8 6.7.8-1.7-1-3.4-2-5.2-2.8.1-.4.3-.8.4-1.3 0-.1.1-.2.1-.3-.8-.3-1.7-.7-2.5-1-1.4-.3-2.8-.7-4.2-1-2-.2-1.4 1.1-3 1.4-.9-.4-1.4-1.1-2.1-1.7-.7-.6-1.7-1.2-3.4-1.2-1.6-.2-3.4-.3-5.2-.4-1.6-.1-3.4-.1-5.1-.2 0 .1 0 .3-.1.3-1.3.3-2.4.6-3.7 1-1.2-.1-2.4-.1-3.7-.1-1.2 0-2.5-.1-3.7 0-2.5.1-4.9 0-7-.2-8.2.2-16.4 1.2-24.4 2.9-.9-.5-2.3-.5-3.8-.1s-2.9 1.1-3.9 1.7c-10.2 2.7-20.2 6.6-29.6 11.6-1.5.2-2.6-.4-4.3 1-.9 1.1-2.9 2-3.2 3.4-1.2.6-2.4 1.1-3.6 1.7-1.1.6-2.3 1.2-3.4 1.8-1.6 1-3.3 2-4.8 3.1-1.6 1.1-3.2 2.1-4.7 3.3-1.4.9-2.9 1.9-4.4 2.9-1 1.1-1.8 2.2-2.9 3.4-.9.9-1.9 1.7-2.8 2.6-.9.9-1.8 1.9-2.8 2.9-.8.6-1.7 1.3-2.4 2.1-.8.8-1.4 1.6-1.7 2.3-1.3 1.2-2.7 2.4-3.9 3.6.7-1.8-1.4-1.1-.8-3.1-1.2.4-2.4 2.6-3.5 3.8-.5 1.3-.9 2.5-1.3 3.8-.1.1-.3.4-.4.6-.4-1.1-1.5-.1-2.3.5-.6.8-1.1 1.5-1.6 2.4-.5 1-1.1 2.2-1.7 4-1.3 1.4-2.1 1.9-2.8 2.6-1 2.1-3.5 4.7-3.1 6.5-.8 1.7-1.5 3.2-2.3 5-1.1 1.7-2 3.6-3 5.4-.6.5-1.1 1.5-1.6 2.5-.4 1.1-.8 2.2-1.3 3.2-.1 1.6-.2 3.2-.2 4.9-.6 1.9-1.2 3.7-1.8 5.6-.6 1.9-1 3.7-1.5 5.5-.4 1.3-.7 2.3-1 3.6-1 .4-2.2 3-3.3 4.4-.5 1.8-.7 3.7-.7 6.5-.1.6-.2 1.1-.3 1.8-2 1.6-1.2 6.1-1.5 8 .4 1 .9 1.9 1.3 2.9-1 1.2-.8 3.5-1 5.3-2.8 4.3-2.3 13-1.7 20.6.6 1.3 1.2 2.5 1.9 3.8.2 1.8.3 3.6.5 5.3.2 1.8.5 3.5.7 5.3-.9.4-1.1 2.6-.4 4.6.9.8 1.3 3 1.9 5.3.7 2.3 1.6 4.8 3.4 5.8.2.7.4 1.6.7 2.5.4 1.1.8 2.3 1.1 3.4.7 1.4-.1-2.7.6-1.3.7 1 1.3 2.5 2.1 3.8.8 1.3 1.5 2.3 2.2 2.3.2-1.3 0-2-.6-3.1-.5-1.1-1.4-2.7-2.8-5.7 1.1-2.5-2.4-9.6-2.2-13.9-.8-1.6-1.5-3.3-2.2-5.1-.4-2.4-.6-3.6-.8-5.1-.7-2.2-1.4-4.2-2-6.2 1 .7 1.1-3.3 2-3.5-.1-1.2-.1-2.4-.2-3.6-.1-1.2 0-2.4-.1-3.5 0-2.3-.1-4.7 0-7 .2-1.1.3-2.3.5-3.4.1-1.5.3-2.9.4-4.3.2-1.4.4-2.9.6-4.3.2-.3.5-.6.7-.8.2.6.5 1.2.8 2 1.6-4.4 1.8 1.4 2.7 2.1.5.4 1 .7 1.5 1.1-.2 2.4-.6 5.5.2 7.5-.2.5-.3 1-.4 1.7-.7.5-1 2.5-.9 4.7 0 1.1.1 2.3.3 3.4.2 1.1.5 2 .9 2.7h.9c1.1.5 2.2 1.1 3.3 1.7.3.8.6 1.6 1 2.4.4.8.7 1.6 1.1 2.4.2 1.8.3 2.8.5 4 .3 0 .7 0 1.6-.1.3 1.5.5 3 .7 4.3.2 1.3.6 2.5 1.3 3.4.4 1.8.8 3.5 1.2 5.3l1.5 5.4c.5 2.1 1.3 4.3 1.9 6.4.7 2.1 1.5 4.2 2.1 6.3.6 1.9 1.3 3.7 1.9 5.5.6 1.9 1.5 3.6 2.2 5.5.6 1.6 1.4 3.2 2.1 4.7.7 1.6 1.4 3.1 2.2 4.7.2 1.3.6 2.9 1.3 4.5.8 1.6 1.8 3.2 3.1 4.6.8.3 1.6.5 2.5.9.4.5.9 1.2 1.3 1.9-1.8-.4-.3 1.6-.3 2.4 1.1 1.3 2.4 2.5 3.6 3.7.1 1.2 0 2.2.1 3.3 1.7 2 3.2 3.8 4.9 5.7 1 1.7 3 2 3.7 2.6.9.8 1.8 1.6 2.8 2.4l3 2.4c3.1 2.7 3.1 4 4.7 6.3-1 0-1.9 0-3-.1-.3.2-.6.4-.8.5.9.8 1.7 1.5 2.5 2.2 4.2 3 3.9.1 7.5 1.8 1.5.9 2.8 1.8 4.3 2.8 1.1.8 2.2.5 5 2.9 1.8-.3 2.7.4 3.7 1.4 1 1 2.1 2.4 4.2 3.2-.5.4-1 .9-1.5 1.4-1.2-.7-2.5-1.4-3.7-2-1.3-.7-2.5-1.3-3.7-2.1-.1.1-.2.2-.3.2.2.9.5 1.8.7 2.7 2.1 1.1 4 2.1 6.1 3.2 2.2 1.1 4.6 2.4 6.8 3.5 1.8.8 3.9 1.6 5.8 2.3 2.3.9 4 1.6 5.5 2.2 1.4 1 2.9 1.8 4.2 2.6 1.2 0 2.5.2 3.8.4 1.3.2 2.7.4 4.2.8 3 .7 6.5 1.3 10.7 2 1.9.5 4 1 5.8 1.4l-1.8 3.3c-1.8-.3-3.6-.6-5.3-1-1.6-.4-3.1-.9-4.6-1.3-.8-.2-1.5-.4-2.3-.6-.8-.2-1.5-.5-2.3-.7-.2.3-.5.7-.8 1.1-1-.1-1.9-.3-2.7-.4-1.9-1.2-3.8-2.5-5.6-3.8-.7.1-1.5.2-2.2.2-4.7-1.2-6.3-1.4-6.8.1-1.5-.4-3-.8-4.5-1.3-3.1-1.6-6.7-3.7-12.8-5.3.3.6.9 1.2 1.6 1.7.8.5 1.7 1 2.8 1.5s2.3 1 3.6 1.5c1.3.5 2.7.9 4.1 1.3 1 .5 2 1 3 1.4l3.1 1.3c2.1.9 4.1 1.8 6.2 2.5.6.1 1.3.1 1.8.3.3-.3.6-.7.8-1.1 1.2.4 2.3.8 3.6 1.2 1.3 1.2 3.3 1.9 5.6 2.4 2.3.4 5 .6 7.5 1l4.8.9c1.6.3 3.2.6 4.8.8 1.9.1 3.9.2 5.6.4l7.5.3c1.1.2 2.4.3 3.5.5.9 0 1.7 0 2.6.1.9.2 1.7.4 2.6.7-.2.5-.3.9-.5 1.3 0 .1-.1.2-.1.3 2.6 1.4 3.8 1.3 6.2.2 1 0 1.9-.1 2.8-.1.9-.1 1.8-.1 2.8-.2 1.1-.5 2.2-1 3.1-1.5.7.1 1.3.1 1.8.2 1.4.5 1.2 1.1 2.3 1.3 3.1-.5 6.4-1 9.3-1.7 2.5-.5 5.4-1 5.4-.1 1.2-.3 2.5-.5 4.1-.9.8-.2 1.7-.4 2.8-.8 1-.4 2.1-.8 3.3-1.4 1.5-.9 3.1-1.8 4.6-2.7.7-.2 3.7 0 5.4-2.5-.5-.4-1.1-.8-1.8-1.1.9-.7 1.8-1.5 2.7-2.3 2.9-1.1 5.7-2.2 8.5-3.5.7.3 1.6.3 2.6.2.8-.4 1.7-.8 2.6-1.2.9-.4 1.8-.8 2.6-1.3 1.7-.9 3.2-1.9 3.8-3.4 1.1-.5 2-1.1 3.1-2 1.1-.9 2.5-2.1 4.6-4 .8-.5 1.5-.9 2.3-1.4 1.6-.9 3.2.2 5.7-2.4 1.6-1.1 2.9-2.1 3.4-4 .6-1.1 1.1-1.9 1.7-3 1.9-1.6 3.7-3.4 5.5-5.2 1.8-1.7 3.5-3.6 5.2-5.4.5-.3.9-.6 1.5-1 1.7-.7 3-1.5 4.8-3.6.7-1.8 4.4-4.4 4-7.4 1-1.2 1.8-2.5 2.7-3.8.9-1 1.7-2 2.6-3.1.8-1 1.7-2.1 2.5-3.3.9-.4 1.8-1.4 2.7-2.8.8-1.4 1.7-3.1 2.5-4.9 1.2-1.7 2-3.2 2.6-4.7.6-1.5.9-2.9 1-4.5.5-1.1 1.6-2.5 1-4 1.2-2.4 2.9-5.3 3.1-10.3.6-1.6 1.3-3.3 2-5.1 2.2-1.7 2.4.4 4.4-.7.4-2.2.8-4.5 1.2-6.7.7-3.2.7-5.2 1.6-7.6.1-1.3 0-2.9 0-4.2.4-1.7.8-3.5 1.2-4.9.3-1.5.4-2.7.2-3.3.4-2.4.3-4 0-5.8zM191 17.8c.5.2 1 .3 1.5.4.5.1 1 .3 1.6.4-1.6-.5-3.4.1-4.7-1.1 0-.1-.2-.2-.3-.4.6.3 1.2.5 1.9.7zM18.2 135.2c.1-.9.2-1.7.2-2.6 0 .8-.1 1.7-.2 2.6zM24.4 71c.5-.9 1.1-1.7 1.7-2.4-.3.8-.7 1.6-1.7 2.4zm165.4 215.5c-.1 0-.2 0-.4.1l.9-.3c-.2 0-.3.1-.5.2zm85.4-55.6c.5-.9 1-1.8 1.5-2.9.3-.7.7-1.4 1.1-2.2-.5 1.3-1.1 3-2.6 5.1zm9.1-14.5c-.6 1-1.2 2.2-1.7 3.2.6-1.5 1.3-2.9 2-4.3 0 .4-.2.7-.3 1.1zm2.9-4.3l-.2.2c.1-.1.2-.1.2-.2.1-.2.2-.4.4-.6-.1.2-.2.4-.4.6z">
      </path>
    </g>
    <g id="SvgjsG237552" class="text" transform="translate(146.57098177449552, 238.35397997759384) scale(1)"
      light-content="false" fill="#22142b">
      <path
        d="M-70.81 -7.6C-72.8 -7.6 -73.8 -6.29 -73.8 -3.66C-73.8 -1.04 -71.9 0.27 -68.1 0.27L-64.3 0.27L-40.97 -0.81C-39.7 -0.81 -33.1 -0.32 -21.16 0.68C-9.22 1.67 0.99 2.17 9.5 2.17C18 2.17 25.68 1.22 32.56 -0.68C39.43 -2.58 46.39 -5.97 53.45 -10.85C60.5 -15.74 66.29 -22.61 70.81 -31.47C75.33 -40.33 77.59 -48.88 77.59 -57.11C77.59 -65.34 76.06 -72.67 72.98 -79.09C69.91 -85.51 66.24 -90.35 61.99 -93.6C57.74 -96.86 53.45 -99.43 49.11 -101.33C44.77 -103.23 41.06 -104.59 37.98 -105.4C34.91 -106.22 33.37 -106.9 33.37 -107.44C33.37 -107.62 34.28 -108.34 36.08 -109.61C52.36 -119.56 60.5 -132.31 60.5 -147.86C60.5 -162.33 54.99 -173.5 43.95 -181.37C32.92 -189.24 19.17 -193.17 2.71 -193.17L-27.13 -192.36L-66.74 -192.09L-77.59 -192.36C-79.22 -192.36 -80.04 -191 -80.04 -188.29C-80.04 -186.12 -78.5 -185.03 -75.42 -185.03C-64.93 -185.03 -57.88 -181.23 -54.26 -173.64C-52.45 -170.02 -51.55 -166.76 -51.55 -163.87L-51.55 -117.75C-51.55 -73.07 -51.73 -46.21 -52.09 -37.17C-52.45 -28.13 -53.45 -21.52 -55.08 -17.36C-57.61 -11.03 -60.77 -7.87 -64.57 -7.87ZM-30.66 -36.9L-30.66 -55.35C-30.66 -76.87 -30.3 -89.53 -29.57 -93.33C-28.85 -96.41 -28.13 -98.17 -27.4 -98.62C-26.68 -99.07 -25.5 -99.3 -23.88 -99.3L-19.81 -99.03L1.36 -98.76C8.23 -98.76 15.65 -97.49 23.6 -94.96C29.39 -93.15 34.37 -90.62 38.53 -87.36C42.69 -84.11 46.39 -79.27 49.65 -72.85C52.91 -66.43 54.53 -58.42 54.53 -48.84C54.53 -39.25 51.77 -30.75 46.26 -23.33C40.74 -15.92 34.41 -11.62 27.27 -10.45C20.12 -9.27 11.67 -8.68 1.9 -8.68L-4.34 -8.68C-22.07 -8.68 -30.93 -14.11 -30.93 -24.96ZM-29.3 -147.86L-29.3 -155.73C-29.3 -167.67 -28.35 -175.31 -26.45 -178.66C-24.55 -182 -20.8 -183.68 -15.19 -183.68C2.35 -183.68 15.87 -178.93 25.37 -169.43C34.86 -159.94 39.61 -150.31 39.61 -140.54C39.61 -130.77 36.76 -122.9 31.06 -116.93C25.37 -110.97 16.82 -107.98 5.43 -107.98L-11.94 -107.98C-21.52 -107.98 -26.68 -108.61 -27.4 -109.88C-28.67 -112.41 -29.3 -125.07 -29.3 -147.86Z">
      </path>
    </g>
  </g>
</svg>